<?xml version="1.0" standalone="no"?>
<!DOCTYPE svg PUBLIC "-//W3C//DTD SVG 20010904//EN"
 "http://www.w3.org/TR/2001/REC-SVG-20010904/DTD/svg10.dtd">
<svg version="1.0" xmlns="http://www.w3.org/2000/svg"
 width="1199.000000pt" height="1199.000000pt" viewBox="0 0 1199.000000 1199.000000"
 preserveAspectRatio="xMidYMid meet">

<g transform="translate(0.000000,1199.000000) scale(0.100000,-0.100000)"
stroke="none">
<path d="M4688 9983 l-3 -181 105 -6 c394 -25 771 -148 1078 -350 l83 -55 84
55 c321 209 671 322 1083 349 l102 7 0 179 0 179 -52 0 c-29 0 -102 -5 -163
-10 -328 -30 -632 -115 -919 -259 l-134 -67 -155 76 c-308 152 -633 236 -984
256 l-122 7 -3 -180z" fill="#256E43" />
<path d="M4690 9254 l0 -184 56 0 c200 0 475 -81 673 -197 176 -104 360 -278
470 -446 l63 -96 50 77 c252 387 669 634 1116 659 l102 6 0 177 c0 97 -2 179
-4 181 -3 2 -58 1 -123 -3 -382 -22 -761 -178 -1062 -438 l-83 -72 -52 49
c-261 250 -693 438 -1051 459 -49 2 -105 7 -122 9 l-33 4 0 -185z" fill="#256E43"/>
<path d="M4688 8546 c-2 -90 -2 -170 0 -178 2 -11 22 -18 70 -23 324 -35 589
-285 642 -607 6 -39 10 -330 10 -750 0 -459 4 -705 11 -740 6 -29 27 -87 46
-128 44 -92 149 -201 235 -242 31 -16 59 -28 62 -28 3 0 6 423 6 939 0 804 -2
951 -15 1022 -43 229 -140 414 -305 580 -163 165 -355 264 -584 304 -49 8
-108 15 -132 15 l-43 0 -3 -164z" fill="#256E43"/>
<path d="M7034 8695 c-103 -18 -176 -41 -270 -85 -343 -158 -577 -485 -624
-870 -15 -122 -14 -1890 1 -1890 30 0 139 71 194 127 65 66 111 142 141 233
17 51 18 113 21 775 2 473 6 741 14 780 26 142 101 276 213 383 120 114 262
179 429 197 l67 7 0 179 0 179 -57 -1 c-32 0 -90 -7 -129 -14z" fill="#256E43"/>
<path d="M4690 7984 c-6 -157 3 -1778 10 -1817 88 -542 500 -961 1040 -1058
121 -22 345 -17 470 10 256 56 455 165 640 351 142 143 236 292 298 475 69
202 65 147 69 1143 l4 903 -48 -7 c-116 -17 -226 -96 -279 -201 l-29 -58 -6
-745 c-4 -507 -10 -761 -18 -795 -49 -213 -160 -400 -311 -522 -375 -303 -899
-272 -1231 73 -105 109 -173 228 -221 386 -22 72 -22 84 -28 828 -5 716 -6
757 -24 800 -58 135 -153 210 -298 236 -21 3 -38 2 -38 -2z" fill="#256E43"/>
<path d="M3067 4289 c-65 -10 -132 -51 -165 -102 -24 -37 -27 -51 -27 -128 0
-119 23 -153 137 -207 46 -22 121 -52 166 -68 57 -19 98 -40 128 -67 42 -37
44 -42 44 -91 0 -87 -55 -154 -149 -182 -118 -35 -239 28 -295 154 -11 23 -24
41 -30 39 -15 -5 -20 -207 -6 -221 7 -7 19 -2 38 17 l27 26 55 -27 c46 -23 68
-27 135 -27 69 0 88 4 140 30 107 53 150 136 143 275 -2 63 -8 84 -31 119 -37
56 -71 75 -207 117 -204 63 -240 88 -240 168 0 88 73 151 175 150 99 0 169
-50 210 -147 25 -61 35 -44 35 63 0 105 -6 116 -41 84 -17 -15 -22 -15 -61 1
-59 23 -124 32 -181 24z"/>
<path d="M3719 3878 l-146 -423 -52 -3 c-36 -2 -51 -7 -51 -18 0 -11 23 -14
125 -14 104 0 125 2 125 15 0 11 -13 15 -54 15 l-55 0 47 138 47 137 124 0
124 0 42 -135 42 -135 -54 -3 c-38 -2 -53 -7 -53 -17 0 -13 28 -15 165 -15
137 0 165 2 165 14 0 11 -14 16 -47 18 l-46 3 -136 422 c-100 312 -140 423
-151 423 -11 0 -55 -115 -161 -422z m171 47 c27 -87 50 -160 50 -162 0 -2 -49
-3 -110 -3 -60 0 -110 4 -110 8 0 7 94 291 106 322 8 18 3 31 64 -165z"/>
<path d="M8479 3877 l-146 -422 -51 -3 c-37 -2 -52 -7 -52 -18 0 -11 23 -14
125 -14 104 0 125 2 125 15 0 11 -13 15 -54 15 l-55 0 47 138 47 137 124 0
125 0 42 -135 42 -135 -54 -3 c-39 -2 -54 -7 -54 -17 0 -13 28 -15 165 -15
137 0 165 2 165 14 0 11 -14 16 -46 18 l-47 3 -135 423 c-102 315 -140 422
-152 422 -11 0 -54 -112 -161 -423z m221 -109 c0 -5 -49 -8 -110 -8 -60 0
-110 4 -110 8 0 8 95 294 106 322 6 12 113 -294 114 -322z"/>
<path d="M4326 4271 c-13 -20 4 -31 50 -31 l44 0 0 -395 0 -395 -50 0 c-38 0
-50 -4 -50 -15 0 -13 25 -15 165 -15 140 0 165 2 165 15 0 12 -13 15 -55 15
l-55 0 2 178 3 177 100 6 c122 7 169 20 232 62 62 41 93 100 93 177 -1 108
-55 174 -171 206 -71 19 -463 32 -473 15z m447 -54 c46 -30 61 -72 61 -167 -1
-156 -59 -210 -226 -210 l-68 0 0 201 0 201 103 -4 c77 -2 110 -8 130 -21z"/>
<path d="M5032 4263 c2 -14 15 -19 51 -21 l47 -3 0 -395 0 -394 -50 0 c-38 0
-50 -4 -50 -15 0 -13 26 -15 176 -15 136 0 175 3 172 13 -3 7 -27 13 -61 15
l-57 3 0 394 0 395 48 0 c52 0 78 12 68 29 -5 7 -63 11 -177 11 -157 0 -170
-1 -167 -17z"/>
<path d="M5475 4269 c-10 -15 2 -24 33 -25 68 -4 62 38 62 -399 l0 -395 -50 0
c-38 0 -50 -4 -50 -15 0 -13 43 -15 330 -15 l330 0 0 38 c0 20 3 74 7 120 5
70 4 82 -9 82 -10 0 -20 -16 -27 -42 -16 -64 -52 -119 -91 -142 -30 -18 -56
-22 -172 -24 l-138 -4 0 202 0 202 47 -7 c87 -13 120 -42 132 -114 4 -19 12
-36 19 -39 9 -3 12 33 12 157 0 136 -2 161 -15 161 -8 0 -15 -9 -15 -20 0 -63
-60 -110 -140 -110 l-40 0 0 183 0 182 121 -2 c67 -1 137 -7 155 -13 43 -15
82 -61 96 -116 7 -24 18 -44 25 -44 10 0 13 26 13 105 l0 105 -314 0 c-212 0
-317 -3 -321 -11z"/>
<path d="M6262 4263 c2 -14 15 -19 51 -21 l47 -3 0 -395 0 -394 -50 0 c-38 0
-50 -4 -50 -15 0 -12 19 -15 115 -15 96 0 115 3 115 15 0 11 -12 15 -45 15
l-45 0 0 380 c0 209 2 380 4 380 2 0 111 -182 241 -405 179 -306 242 -405 256
-405 18 0 19 16 19 420 l0 420 38 0 c43 0 68 13 58 29 -5 7 -49 11 -122 11
-105 0 -115 -2 -112 -17 3 -14 13 -18 48 -18 l45 0 3 -142 c1 -78 1 -208 0
-290 l-3 -148 -184 308 -183 307 -125 0 c-113 0 -124 -2 -121 -17z"/>
<path d="M7095 4258 c-2 -13 -6 -69 -7 -126 -4 -124 11 -133 46 -30 34 103 71
134 166 140 l55 3 3 -397 2 -398 -55 0 c-42 0 -55 -3 -55 -15 0 -13 26 -15
176 -15 136 0 175 3 172 13 -3 7 -26 13 -56 15 l-52 3 2 397 3 397 55 -3 c30
-2 67 -10 81 -18 39 -20 77 -69 89 -117 19 -73 21 -77 35 -77 11 0 13 22 8
113 -2 61 -6 118 -9 125 -2 9 -77 12 -328 12 l-326 0 -5 -22z"/>
<path d="M7832 4263 c2 -14 15 -19 51 -21 l47 -3 0 -395 0 -394 -50 0 c-38 0
-50 -4 -50 -15 0 -13 26 -15 176 -15 136 0 175 3 172 13 -3 7 -27 13 -61 15
l-57 3 0 394 0 394 58 3 c43 2 57 7 57 18 0 13 -27 15 -173 18 -162 2 -173 1
-170 -15z"/>
<path d="M3875 3035 c-42 -22 -90 -78 -103 -123 -35 -117 14 -242 105 -273 44
-14 123 -6 158 17 29 19 55 63 55 93 0 12 8 21 23 24 12 2 -16 4 -63 4 -50 1
-73 -2 -55 -6 31 -7 33 -15 19 -79 -7 -34 -61 -54 -108 -41 -55 15 -75 66 -76
184 0 75 4 99 23 135 41 83 140 86 188 5 12 -19 23 -35 25 -35 2 0 4 23 4 51
0 42 -2 49 -14 40 -10 -8 -22 -7 -49 4 -46 19 -94 19 -132 0z"/>
<path d="M4257 2851 c-65 -187 -71 -200 -95 -204 -15 -2 2 -4 38 -4 36 0 53 2
38 4 -33 5 -33 5 -12 69 23 70 30 73 131 65 17 -1 55 -121 40 -126 -7 -2 -19
-6 -27 -8 -8 -3 21 -5 65 -5 44 0 70 3 58 5 -20 4 -31 30 -86 201 -35 108 -68
197 -73 199 -5 2 -40 -87 -77 -196z m81 31 c12 -38 22 -71 22 -75 0 -4 -22 -7
-50 -7 -27 0 -50 3 -50 7 0 16 44 143 50 143 3 0 16 -31 28 -68z"/>
<path d="M5250 2868 c-74 -215 -73 -215 -102 -221 -13 -2 6 -4 42 -4 36 0 53
2 38 4 -33 5 -32 -1 -11 73 16 59 17 60 52 61 20 0 43 2 52 4 25 5 34 -6 52
-59 22 -65 21 -74 -5 -79 -13 -2 13 -4 57 -5 46 0 69 3 55 7 -22 6 -31 28 -88
204 -34 108 -67 197 -71 197 -5 0 -36 -82 -71 -182z m72 24 c9 -32 20 -66 24
-75 5 -15 -1 -17 -45 -17 -34 0 -51 4 -51 13 0 17 44 137 50 137 3 0 13 -26
22 -58z"/>
<path d="M8285 3017 c-29 -29 -35 -42 -35 -77 0 -56 35 -90 121 -119 80 -26
114 -58 105 -96 -19 -76 -121 -103 -174 -47 -15 15 -32 37 -39 47 -10 17 -12
12 -12 -34 -1 -43 1 -51 12 -42 10 8 24 7 55 -5 55 -22 106 -12 149 31 30 30
33 39 33 89 0 73 -22 97 -116 126 -80 24 -104 43 -104 81 0 33 40 69 77 69 39
0 79 -27 94 -62 l14 -33 5 30 c8 43 2 60 -23 62 -12 2 -46 6 -75 9 -50 6 -54
4 -87 -29z"/>
<path d="M2533 3033 l27 -4 0 -189 0 -189 -27 -4 c-16 -2 8 -4 52 -4 44 0 70
2 58 4 -22 4 -23 9 -23 99 l0 94 85 0 85 0 0 -94 c0 -90 -1 -95 -22 -99 -13
-2 13 -4 57 -5 47 0 70 3 55 7 l-25 7 0 184 0 184 25 7 c15 4 -8 7 -55 7 -44
-1 -70 -3 -57 -5 21 -4 22 -9 22 -89 l0 -84 -85 0 -85 0 0 84 c0 80 1 85 23
89 12 2 -14 4 -58 4 -44 0 -68 -2 -52 -4z"/>
<path d="M2973 3033 l27 -4 0 -165 0 -164 29 -32 c27 -31 34 -33 94 -33 55 0
69 4 91 24 37 35 46 79 46 233 0 134 0 137 23 141 12 2 -5 4 -38 4 -33 0 -47
-2 -32 -4 l29 -4 -4 -166 -3 -165 -28 -24 c-36 -30 -94 -32 -124 -4 -28 25
-35 76 -31 230 3 123 3 124 28 131 14 4 -9 7 -55 7 -44 -1 -68 -3 -52 -5z"/>
<path d="M3373 3033 l27 -4 -2 -187 -3 -186 -25 -7 c-16 -5 -4 -7 35 -7 33 1
50 3 38 5 -23 4 -23 6 -23 186 l0 181 113 -192 c61 -105 115 -192 120 -192 4
0 7 90 7 199 l0 200 28 4 c15 2 0 4 -33 4 -33 0 -50 -2 -37 -4 22 -4 22 -7 22
-141 l0 -137 -83 140 -82 140 -65 1 c-36 1 -53 0 -37 -3z"/>
<path d="M4563 3033 l27 -4 0 -189 0 -189 -27 -4 c-16 -2 8 -4 52 -4 44 0 70
2 58 4 -22 4 -23 9 -23 104 l0 99 35 0 c54 0 80 -32 89 -107 11 -97 53 -132
121 -103 18 8 18 9 -5 9 -37 1 -50 19 -50 71 0 62 -17 91 -70 118 -33 16 -39
22 -22 22 31 0 79 26 92 49 18 35 12 76 -16 102 -24 23 -33 24 -157 25 -73 1
-120 0 -104 -3z m210 -34 c14 -18 18 -34 14 -63 -7 -50 -28 -66 -89 -66 l-48
0 0 81 0 82 52 -5 c39 -4 57 -11 71 -29z"/>
<path d="M4963 3033 l27 -4 0 -189 0 -189 -27 -4 c-16 -2 10 -4 57 -5 48 0 74
3 60 7 l-25 7 -3 186 -2 187 27 4 c16 2 -10 4 -57 4 -47 0 -73 -2 -57 -4z"/>
<path d="M5550 3031 l24 -7 -2 -164 c-1 -91 -2 -175 -2 -187 0 -14 -7 -23 -22
-26 -13 -2 4 -4 37 -5 39 0 51 2 35 7 l-25 7 -2 179 c-3 212 -16 215 129 -32
55 -95 104 -173 109 -173 5 0 9 89 9 199 0 199 0 200 23 204 12 2 -5 4 -38 4
-33 0 -48 -2 -32 -4 l27 -4 0 -137 c0 -117 -2 -134 -13 -117 -8 11 -47 75 -87
143 l-73 122 -61 -1 c-41 -1 -53 -3 -36 -8z"/>
<path d="M6108 3033 c22 -4 22 -7 23 -151 0 -86 5 -162 12 -182 21 -60 106
-87 180 -57 59 25 62 35 67 216 l5 165 25 7 c17 5 5 7 -35 7 -40 0 -52 -2 -35
-7 25 -7 25 -9 28 -126 4 -152 -3 -201 -33 -231 -30 -30 -92 -33 -126 -5 -23
19 -24 24 -27 189 l-3 171 28 4 c15 2 -8 4 -52 4 -44 0 -70 -2 -57 -4z"/>
<path d="M6508 3033 c22 -4 22 -5 22 -193 0 -188 0 -189 -22 -193 -13 -2 4 -4
37 -5 39 0 51 2 35 7 l-25 7 -2 179 c-2 162 -1 178 12 160 9 -10 61 -97 116
-192 56 -95 105 -173 110 -173 5 0 9 89 9 199 0 199 0 200 23 204 12 2 -5 4
-38 4 -33 0 -48 -2 -32 -4 l27 -4 0 -137 c0 -117 -2 -134 -13 -117 -8 11 -47
75 -87 143 l-73 122 -61 -1 c-33 -1 -51 -4 -38 -6z"/>
<path d="M6913 3033 l27 -4 -2 -187 -3 -186 -25 -7 c-14 -4 12 -7 60 -7 47 1
73 3 58 5 l-28 4 0 189 0 189 28 4 c15 2 -11 4 -58 4 -47 0 -73 -2 -57 -4z"/>
<path d="M7099 3031 c21 -6 32 -30 90 -204 36 -108 69 -197 73 -197 3 0 36 90
73 199 57 171 69 200 88 204 12 2 -5 4 -38 4 -33 0 -48 -2 -32 -4 15 -2 27 -7
27 -11 0 -13 -92 -283 -95 -280 -7 6 -95 262 -95 274 0 7 10 15 23 17 12 2
-14 4 -58 5 -44 0 -69 -3 -56 -7z"/>
<path d="M7498 3033 c22 -4 22 -5 22 -193 0 -188 0 -189 -22 -193 -13 -2 45
-5 128 -6 l152 -1 6 31 c9 44 7 79 -3 79 -5 0 -11 -13 -14 -30 -9 -43 -47 -63
-120 -64 l-62 -1 -3 93 c-3 86 -1 92 17 92 34 0 53 -12 67 -44 13 -29 13 -27
14 49 l0 80 -20 -32 c-15 -26 -27 -33 -50 -33 l-30 0 0 85 0 85 49 0 c70 0
109 -17 126 -54 l13 -31 1 48 1 47 -147 -1 c-82 -1 -138 -4 -125 -6z"/>
<path d="M7868 3033 c22 -4 22 -5 22 -193 l0 -189 -27 -4 c-16 -2 10 -4 57 -4
47 0 73 2 58 4 l-28 4 0 100 0 99 34 0 c55 0 82 -32 95 -115 7 -51 16 -75 32
-87 23 -20 65 -23 89 -8 12 8 9 10 -12 10 -34 0 -48 24 -48 82 0 52 -19 81
-68 108 -29 15 -32 19 -16 20 32 0 87 42 94 70 10 39 -8 77 -45 94 -25 12 -62
16 -147 15 -62 -1 -103 -4 -90 -6z m209 -29 c7 -10 13 -35 13 -56 0 -55 -27
-78 -90 -78 l-50 0 0 81 0 82 57 -6 c38 -4 62 -12 70 -23z"/>
<path d="M8563 3033 l27 -4 0 -189 0 -189 -27 -4 c-16 -2 13 -4 62 -4 50 0 77
2 60 6 l-30 6 0 185 0 185 30 6 c17 4 -10 6 -60 6 -49 0 -78 -2 -62 -4z"/>
<path d="M8740 3001 c0 -22 -3 -46 -6 -55 -14 -35 12 -13 28 24 10 25 26 44
43 50 56 21 55 26 55 -179 l0 -190 -27 -4 c-16 -2 10 -4 57 -5 48 0 74 3 60 7
l-25 7 -3 187 c-2 180 -2 187 17 187 43 0 72 -20 91 -62 l19 -43 0 58 1 57
-155 0 -155 0 0 -39z"/>
<path d="M9080 3033 c21 -3 38 -24 83 -102 l57 -98 0 -91 0 -91 -27 -4 c-16
-2 13 -4 62 -4 50 0 77 2 60 6 l-30 6 -3 83 -3 83 56 104 c47 88 60 104 83
108 15 2 -4 4 -43 4 -38 0 -55 -2 -38 -4 l33 -4 -40 -79 c-22 -43 -44 -81 -49
-85 -9 -5 -101 138 -101 157 0 3 10 9 23 11 12 2 -16 4 -63 4 -47 0 -74 -2
-60 -4z"/>
<path d="M3550 2312 c-42 -19 -72 -49 -95 -95 -75 -151 31 -338 176 -311 170
32 196 317 37 400 -28 15 -92 18 -118 6z m99 -16 c38 -20 52 -57 58 -156 9
-146 -26 -220 -106 -220 -31 0 -44 6 -65 30 -32 39 -39 77 -34 187 4 97 20
141 58 160 33 17 55 16 89 -1z"/>
<path d="M5195 2298 c-4 -13 -35 -101 -67 -195 -55 -159 -62 -173 -84 -173
-13 0 -24 -4 -24 -10 0 -6 27 -10 61 -10 37 0 58 4 54 10 -3 6 -15 10 -26 10
-24 0 -24 6 2 75 l20 55 58 0 57 0 17 -53 c22 -69 21 -77 -3 -77 -11 0 -20 -4
-20 -10 0 -6 32 -10 75 -10 43 0 75 4 75 10 0 6 -10 10 -22 10 -21 0 -29 18
-85 192 -33 106 -66 194 -71 196 -6 2 -14 -7 -17 -20z m19 -135 c10 -32 20
-66 22 -75 5 -16 -2 -18 -45 -18 -34 0 -51 4 -51 13 0 19 43 137 50 137 4 0
14 -26 24 -57z"/>
<path d="M5859 2291 c-23 -24 -29 -38 -29 -74 0 -62 25 -89 112 -121 89 -33
108 -49 108 -92 0 -50 -50 -88 -108 -81 -45 5 -87 34 -98 69 -3 10 -10 18 -16
18 -8 0 -7 -46 1 -99 1 -2 7 2 15 8 11 9 20 9 35 2 28 -16 107 -13 140 4 53
27 77 116 46 175 -14 27 -55 48 -145 75 -34 10 -70 44 -70 67 0 33 45 68 86
68 30 0 44 -7 76 -40 l38 -41 0 47 c0 39 -2 45 -14 35 -11 -9 -20 -9 -35 -2
-11 6 -41 11 -66 11 -38 0 -52 -5 -76 -29z"/>
<path d="M7371 2298 c-4 -13 -34 -101 -66 -195 -54 -156 -61 -173 -82 -173
-13 0 -23 -4 -23 -10 0 -5 25 -10 55 -10 30 0 55 5 55 10 0 6 -9 10 -20 10
-24 0 -24 9 -1 75 l18 50 58 0 58 0 18 -50 c23 -66 23 -75 -1 -75 -11 0 -20
-4 -20 -10 0 -6 30 -10 70 -10 40 0 70 4 70 10 0 6 -8 10 -18 10 -15 0 -30 36
-81 195 -35 107 -67 195 -72 195 -5 0 -13 -10 -18 -22z m18 -130 c31 -92 30
-98 -24 -98 -36 0 -45 3 -45 18 0 14 42 142 46 142 1 0 12 -28 23 -62z"/>
<path d="M8361 2298 c-5 -13 -35 -101 -67 -195 -53 -155 -61 -173 -81 -173
-13 0 -23 -4 -23 -10 0 -5 25 -10 55 -10 30 0 55 5 55 10 0 6 -11 10 -25 10
l-24 0 22 63 22 62 59 0 58 0 19 -60 c10 -33 19 -61 19 -62 0 -2 -9 -3 -19 -3
-11 0 -23 -4 -26 -10 -4 -6 22 -10 69 -10 44 0 76 4 76 10 0 6 -9 10 -19 10
-17 0 -29 30 -82 195 -35 107 -66 195 -71 195 -5 0 -13 -10 -17 -22z m18 -137
c12 -38 21 -74 21 -80 0 -7 -21 -11 -51 -11 -37 0 -50 4 -47 13 3 6 15 42 27
80 13 37 24 67 26 67 2 0 12 -31 24 -69z"/>
<path d="M3853 2303 l27 -4 0 -185 0 -184 -25 0 c-14 0 -25 -4 -25 -10 0 -6
32 -10 75 -10 43 0 75 4 75 10 0 6 -9 10 -20 10 -19 0 -20 7 -20 90 0 71 3 90
14 90 29 0 49 -14 62 -44 12 -29 13 -27 13 49 0 44 -3 73 -6 65 -11 -28 -36
-50 -60 -50 -22 0 -23 2 -23 85 l0 85 58 0 c66 0 96 -16 116 -63 l14 -32 1 53
1 52 -152 -1 c-84 -1 -141 -4 -125 -6z"/>
<path d="M4305 2276 c-4 -18 -5 -44 -3 -57 4 -21 6 -19 22 19 20 46 40 62 80
62 l26 0 0 -185 0 -185 -25 0 c-14 0 -25 -4 -25 -10 0 -6 33 -10 80 -10 47 0
80 4 80 10 0 6 -11 10 -25 10 l-25 0 0 185 0 185 30 0 c36 0 80 -38 80 -69 0
-11 5 -23 10 -26 6 -4 10 15 10 49 l0 56 -155 0 -154 0 -6 -34z"/>
<path d="M4658 2303 c22 -4 22 -6 22 -189 0 -177 -1 -184 -20 -184 -11 0 -20
-4 -20 -10 0 -6 32 -10 76 -10 47 0 73 4 69 10 -3 6 -15 10 -26 10 -17 0 -19
8 -19 95 l0 95 40 0 c55 0 77 -24 85 -97 9 -73 27 -109 60 -117 28 -7 75 2 75
14 0 5 -10 6 -21 3 -30 -8 -49 21 -49 73 0 60 -17 90 -61 112 l-38 19 38 11
c60 18 90 68 71 118 -17 42 -58 54 -187 53 -65 -1 -108 -4 -95 -6z m202 -23
c13 -13 20 -33 20 -60 0 -57 -26 -80 -90 -80 l-50 0 0 80 0 80 50 0 c37 0 55
-5 70 -20z"/>
<path d="M5443 2303 l27 -4 0 -185 0 -184 -25 0 c-14 0 -25 -4 -25 -10 0 -5
25 -10 55 -10 30 0 55 5 55 10 0 6 -11 10 -25 10 l-25 0 0 175 c0 96 3 175 8
175 4 -1 56 -86 117 -190 60 -105 113 -190 117 -190 5 0 8 90 8 199 0 199 0
200 23 204 12 2 -3 4 -33 4 -30 0 -45 -2 -32 -4 22 -4 22 -7 22 -141 l0 -137
-86 143 -85 142 -62 -1 c-34 -1 -50 -4 -34 -6z"/>
<path d="M6121 2303 c20 -3 37 -24 82 -101 l57 -96 0 -88 c0 -87 0 -88 -25
-88 -14 0 -25 -4 -25 -10 0 -6 33 -10 80 -10 47 0 80 4 80 10 0 6 -11 10 -25
10 -25 0 -25 1 -25 83 0 79 2 85 53 182 39 75 58 101 77 106 16 4 1 7 -40 7
-45 -1 -55 -3 -33 -7 l32 -6 -46 -83 c-25 -46 -49 -80 -53 -75 -5 4 -28 43
-53 85 l-45 77 26 4 c15 2 -11 4 -58 4 -47 0 -73 -2 -59 -4z"/>
<path d="M6520 2301 l25 -7 3 -182 2 -182 -25 0 c-14 0 -25 -5 -25 -10 0 -7
51 -10 148 -8 l147 3 2 55 c2 50 1 53 -10 28 -26 -56 -45 -68 -114 -68 l-63 0
0 184 0 185 28 4 c15 2 -11 4 -58 5 -48 0 -74 -3 -60 -7z"/>
<path d="M6840 2303 c24 -4 31 -19 89 -196 35 -106 67 -196 71 -200 4 -5 38
81 75 192 57 171 69 200 88 204 12 2 -5 4 -38 4 -33 0 -48 -2 -32 -4 15 -2 27
-7 27 -11 0 -15 -92 -283 -96 -279 -5 5 -94 268 -94 278 0 4 10 10 23 12 12 2
-14 4 -58 4 -44 0 -69 -2 -55 -4z"/>
<path d="M7618 2303 c22 -4 22 -6 22 -189 0 -177 -1 -184 -20 -184 -11 0 -20
-4 -20 -10 0 -5 23 -10 50 -10 28 0 50 5 50 10 0 6 -9 10 -20 10 -19 0 -20 7
-20 177 0 107 4 173 9 168 5 -6 57 -92 116 -192 59 -101 111 -180 116 -177 5
3 9 92 9 199 0 193 0 194 23 198 12 2 -5 4 -38 4 -33 0 -48 -2 -32 -4 l27 -4
0 -130 c0 -72 -4 -128 -9 -125 -5 3 -43 64 -86 136 l-77 130 -62 -1 c-33 -1
-51 -4 -38 -6z"/>
<path d="M8023 2303 l27 -4 0 -185 0 -184 -25 0 c-14 0 -25 -4 -25 -10 0 -6
33 -10 80 -10 47 0 80 4 80 10 0 6 -11 10 -25 10 l-25 0 0 184 0 185 28 4 c15
2 -11 4 -58 4 -47 0 -73 -2 -57 -4z"/>
</g>
</svg>
