<?xml version="1.0"?>
<svg xmlns="http://www.w3.org/2000/svg" xmlns:xlink="http://www.w3.org/1999/xlink" xmlns:svgjs="http://svgjs.com/svgjs" version="1.1" width="512" height="512" x="0" y="0" viewBox="0 0 24 24" style="enable-background:new 0 0 512 512" xml:space="preserve" class=""><g><path xmlns="http://www.w3.org/2000/svg" d="m11.894 24c-.131 0-.259-.052-.354-.146-.118-.118-.17-.288-.137-.451l.707-3.535c.02-.098.066-.187.137-.256l7.778-7.778c.584-.584 1.537-.584 2.121 0l1.414 1.414c.585.585.585 1.536 0 2.121l-7.778 7.778c-.069.07-.158.117-.256.137l-3.535.707c-.032.006-.065.009-.097.009zm1.168-3.789-.53 2.651 2.651-.53 7.671-7.671c.195-.195.195-.512 0-.707l-1.414-1.414c-.195-.195-.512-.195-.707 0zm2.367 2.582h.01z" fill="#1565c0" data-original="#000000" style=""/><path xmlns="http://www.w3.org/2000/svg" d="m6.5 10h-2c-.827 0-1.5-.673-1.5-1.5v-3c0-.827.673-1.5 1.5-1.5h2c.276 0 .5.224.5.5s-.224.5-.5.5h-2c-.275 0-.5.225-.5.5v3c0 .275.225.5.5.5h2c.276 0 .5.224.5.5s-.224.5-.5.5z" fill="#1565c0" data-original="#000000" style=""/><path xmlns="http://www.w3.org/2000/svg" d="m10 9c-.276 0-.5-.224-.5-.5v-3c0-.276.224-.5.5-.5s.5.224.5.5v3c0 .276-.224.5-.5.5z" fill="#1565c0" data-original="#000000" style=""/><path xmlns="http://www.w3.org/2000/svg" d="m11.5 7.5h-3c-.276 0-.5-.224-.5-.5s.224-.5.5-.5h3c.276 0 .5.224.5.5s-.224.5-.5.5z" fill="#1565c0" data-original="#000000" style=""/><path xmlns="http://www.w3.org/2000/svg" d="m15 9c-.276 0-.5-.224-.5-.5v-3c0-.276.224-.5.5-.5s.5.224.5.5v3c0 .276-.224.5-.5.5z" fill="#1565c0" data-original="#000000" style=""/><path xmlns="http://www.w3.org/2000/svg" d="m16.5 7.5h-3c-.276 0-.5-.224-.5-.5s.224-.5.5-.5h3c.276 0 .5.224.5.5s-.224.5-.5.5z" fill="#1565c0" data-original="#000000" style=""/><path xmlns="http://www.w3.org/2000/svg" d="m8.89 24h-6.39c-1.379 0-2.5-1.121-2.5-2.5v-19c0-1.379 1.121-2.5 2.5-2.5h15c1.379 0 2.5 1.121 2.5 2.5v6.72c0 .276-.224.5-.5.5s-.5-.224-.5-.5v-6.72c0-.827-.673-1.5-1.5-1.5h-15c-.827 0-1.5.673-1.5 1.5v19c0 .827.673 1.5 1.5 1.5h6.39c.276 0 .5.224.5.5s-.224.5-.5.5z" fill="#1565c0" data-original="#000000" style=""/></g></svg>
